<svg width="18" height="18" viewBox="0 0 18 18" fill="none" xmlns="http://www.w3.org/2000/svg">
<g clip-path="url(#clip0_5_78)">
<path d="M5.28047 0.710156C4.66172 0.7875 4.04297 1.08984 3.60703 1.52578C3.24844 1.88437 3.01641 2.29219 2.84766 2.84062C2.78437 3.06562 2.78438 3.11484 2.77031 8.10703L2.76328 13.1484H1.93359C1.00547 13.1484 0.949219 13.1555 0.794531 13.3594C0.703125 13.4859 0.703125 13.5 0.703125 13.8516C0.717188 14.857 1.11797 15.8062 1.79297 16.4531C2.20781 16.8469 2.57344 17.0508 3.15 17.2125L3.45938 17.2969L8.00156 17.3039C11.9461 17.3109 12.5789 17.3039 12.825 17.2617C13.957 17.0648 14.8078 16.2984 15.1383 15.1664L15.2086 14.9203L15.2156 9.8789L15.2227 4.84453H16.0453C16.8328 4.84453 16.875 4.84453 17.0086 4.76719C17.1141 4.71797 17.1773 4.65469 17.2266 4.54922C17.2969 4.41562 17.3039 4.38047 17.2828 4.06406C17.1844 2.26406 16.2703 0.977343 14.9273 0.73125C14.7305 0.696093 13.8234 0.689062 10.0266 0.689062C7.47422 0.696093 5.32969 0.710156 5.28047 0.710156ZM15.0891 1.80703C14.8359 1.98281 14.4984 2.51719 14.3086 3.05859L14.2031 3.36797L14.1891 9.1125L14.175 14.857L14.0977 15.0539C13.7953 15.8133 13.1344 16.2703 12.3328 16.2703C11.1586 16.2703 10.3148 15.4687 10.118 14.1609C10.0898 13.9922 10.0687 13.7812 10.0687 13.6898C10.0687 13.507 9.99141 13.3594 9.82969 13.2398C9.73828 13.1695 9.72422 13.1695 6.77109 13.1625L3.80391 13.1555V8.24765C3.80391 2.99531 3.80391 3.17109 3.96563 2.79844C4.13438 2.42578 4.50703 2.05312 4.87266 1.89141C5.23125 1.72969 5.0625 1.73672 10.2937 1.73672H15.2086L15.0891 1.80703Z" fill="black"/>
<path d="M7.22109 5.93438C7.09453 5.99766 4.94297 8.14219 4.87969 8.26172C4.82344 8.37422 4.82344 8.59219 4.87969 8.70469C4.90781 8.75391 5.43516 9.29531 6.06094 9.92109C7.03828 10.8984 7.20703 11.0461 7.3125 11.0672C7.56563 11.1094 7.79766 11.0039 7.90313 10.7859C7.95938 10.6805 7.96641 10.4555 7.91719 10.357C7.8961 10.3148 7.48125 9.87891 6.98906 9.38672L6.08906 8.48672L6.98906 7.58672C7.48125 7.09453 7.90313 6.65859 7.91719 6.61641C8.01563 6.41953 7.92422 6.13125 7.72031 5.98359C7.60078 5.88516 7.34766 5.86406 7.22109 5.93438Z" fill="black"/>
<path d="M10.3289 5.9414C10.118 6.04687 9.99843 6.2789 10.0477 6.525C10.0687 6.63047 10.1953 6.77109 10.9898 7.57969L11.9109 8.50781L11.018 9.40078C10.5117 9.90703 10.0969 10.3359 10.0758 10.3922C10.0125 10.5398 10.0195 10.6664 10.1039 10.8211C10.2023 11.0109 10.35 11.0883 10.582 11.0742C10.7297 11.0672 10.793 11.0391 10.8914 10.9617C10.9617 10.9055 11.4891 10.3852 12.0656 9.80859C12.9727 8.89453 13.1133 8.73984 13.1484 8.62031C13.2187 8.34609 13.2187 8.34609 11.9883 7.11562C11.2289 6.35625 10.8211 5.97656 10.7367 5.93437C10.582 5.87109 10.4695 5.87109 10.3289 5.9414Z" fill="black"/>
</g>
<defs>
<clipPath id="clip0_5_78">
<rect width="18" height="18" fill="white"/>
</clipPath>
</defs>
</svg>
