<svg width="20" height="20" viewBox="0 0 20 20" fill="none" xmlns="http://www.w3.org/2000/svg">
<g clip-path="url(#clip0_5_25)">
<path d="M16.125 0.78125H3.875C2.17188 0.78125 0.78125 2.17187 0.78125 3.875V16.1172C0.78125 17.8203 2.17188 19.2109 3.875 19.2109H16.1172C17.8203 19.2109 19.2109 17.8203 19.2109 16.1172V3.875C19.2188 2.17187 17.8281 0.78125 16.125 0.78125ZM7.69531 15.7656H5.39062V7.69531H7.69531V15.7656ZM6.53906 6.54687C5.90625 6.54687 5.39062 6.03125 5.39062 5.39062C5.39062 4.75 5.90625 4.23437 6.54688 4.23437C7.17969 4.23437 7.70312 4.75 7.70312 5.39062C7.70312 6.03125 7.17969 6.54687 6.53906 6.54687ZM15.7578 15.7656H13.4531V11.1562C13.4531 10.5234 12.9375 10 12.2969 10C11.6562 10 11.1406 10.5156 11.1406 11.1562V15.7656H8.83594V7.69531H11.1406V9.125C11.6172 8.46875 12.3438 7.69531 13.1562 7.69531C14.5859 7.69531 15.75 8.98437 15.75 10.5781V15.7656H15.7578Z" fill="black"/>
</g>
<defs>
<clipPath id="clip0_5_25">
<rect width="20" height="20" fill="white"/>
</clipPath>
</defs>
</svg>
